<svg width="30" height="19" viewBox="0 0 30 19" fill="none" xmlns="http://www.w3.org/2000/svg">
<path d="M22.3187 5.72482L24.8073 0.855892C24.9477 0.582938 24.8628 0.236208 24.6244 0.0775984C24.386 -0.0810086 24.0757 0.011203 23.9386 0.284158L21.4174 5.21579C19.4938 4.22356 17.3285 3.67027 15 3.67027C12.6714 3.67027 10.5062 4.22356 8.58261 5.21579L6.06139 0.284158C5.92096 0.011203 5.61397 -0.0810086 5.3723 0.0775984C5.13062 0.236208 5.04898 0.582938 5.18941 0.855892L7.67797 5.72482C3.38667 8.3511 0.480067 13.2569 0 19H30C29.5199 13.2569 26.6133 8.35105 22.3188 5.72482H22.3187ZM8.11233 14.2418C7.41671 14.2418 6.85499 13.6036 6.85499 12.8217C6.85499 12.036 7.41998 11.4016 8.11233 11.4016C8.80796 11.4016 9.36968 12.0397 9.36968 12.8217C9.37296 13.6036 8.80796 14.2418 8.11233 14.2418ZM21.8844 14.2418C21.1888 14.2418 20.6271 13.6036 20.6271 12.8217C20.6271 12.036 21.192 11.4016 21.8844 11.4016C22.58 11.4016 23.1417 12.0397 23.1417 12.8217C23.145 13.6036 22.58 14.2418 21.8844 14.2418Z" fill="#24D378"/>
</svg>
