<svg width="500" height="338" viewBox="0 0 500 338" fill="none" xmlns="http://www.w3.org/2000/svg">
<path d="M250.27 335.305C366.425 335.305 460.587 324.319 460.587 310.767C460.587 297.215 366.425 286.229 250.27 286.229C134.115 286.229 39.9531 297.215 39.9531 310.767C39.9531 324.319 134.115 335.305 250.27 335.305Z" fill="#EBEBEB"/>
<path d="M277.77 315.346C279.852 316.047 339.457 316.258 341.739 314.825C342.61 314.284 343.141 305.597 343.491 295.087C343.571 292.812 343.631 290.468 343.691 288.073L348.516 256.261L308.673 256.001L304.909 287.833L305.059 294.846C305.059 294.846 282.205 304.986 279.872 306.819C277.54 308.653 275.698 314.635 277.77 315.346Z" fill="#E69482"/>
<path d="M277.77 315.346C279.852 316.047 339.457 316.258 341.739 314.825C342.79 314.164 343.371 301.479 343.691 288.083L304.909 287.843L305.059 294.856C305.059 294.856 282.205 304.996 279.872 306.83C277.54 308.663 275.698 314.635 277.77 315.346Z" fill="white"/>
<path d="M277.77 315.346C279.852 316.047 339.457 316.258 341.739 314.825C342.61 314.284 343.141 305.597 343.491 295.087L305.059 294.836C305.059 294.836 282.205 304.976 279.872 306.809C277.54 308.643 275.698 314.635 277.77 315.346Z" fill="#FFC42D"/>
<path d="M278.641 312.961C288.652 312.751 328.956 312.841 338.846 313.392C338.926 313.392 338.926 313.453 338.846 313.463C328.946 313.884 288.622 313.463 278.631 313.122C278.421 313.112 278.431 312.961 278.641 312.961Z" fill="#2C2C2C"/>
<path d="M283.717 304.675C284.834 304.644 285.946 304.847 286.981 305.271C288.015 305.696 288.949 306.332 289.723 307.14C291.122 308.573 291.917 310.488 291.946 312.49C291.946 312.551 291.825 312.551 291.815 312.49C291.489 310.516 290.532 308.7 289.088 307.315C287.645 305.929 285.792 305.049 283.807 304.806C283.79 304.818 283.768 304.822 283.748 304.818C283.727 304.815 283.709 304.803 283.697 304.786C283.685 304.768 283.68 304.747 283.684 304.726C283.688 304.706 283.699 304.687 283.717 304.675Z" fill="#2C2C2C"/>
<path d="M301.185 295.818C305.19 295.818 309.815 297.211 312.287 300.487C312.387 300.617 312.207 300.748 312.087 300.688C308.582 298.842 304.891 297.374 301.075 296.309C301.01 296.294 300.954 296.255 300.918 296.198C300.882 296.142 300.87 296.074 300.885 296.008C300.9 295.943 300.939 295.887 300.996 295.851C301.052 295.815 301.12 295.804 301.185 295.818Z" fill="#2C2C2C"/>
<path d="M298.092 297.01C302.096 297.01 306.721 298.403 309.194 301.69C309.294 301.81 309.114 301.95 308.994 301.88C305.491 300.031 301.799 298.567 297.982 297.511C297.926 297.488 297.879 297.445 297.851 297.391C297.823 297.337 297.814 297.275 297.827 297.215C297.841 297.155 297.874 297.102 297.923 297.064C297.971 297.027 298.031 297.008 298.092 297.01Z" fill="#2C2C2C"/>
<path d="M294.999 298.213C299.003 298.163 303.628 299.596 306.111 302.882C306.201 303.002 306.021 303.142 305.901 303.082C302.4 301.226 298.708 299.758 294.889 298.704C294.824 298.689 294.767 298.649 294.731 298.593C294.696 298.537 294.684 298.468 294.698 298.403C294.713 298.338 294.753 298.282 294.809 298.246C294.866 298.21 294.934 298.198 294.999 298.213Z" fill="#2C2C2C"/>
<path d="M291.905 299.405C295.909 299.405 300.544 300.788 303.017 304.074C303.107 304.194 302.927 304.335 302.807 304.274C299.306 302.418 295.614 300.95 291.795 299.896C291.73 299.881 291.673 299.842 291.638 299.785C291.602 299.729 291.59 299.661 291.605 299.595C291.619 299.53 291.659 299.474 291.715 299.438C291.772 299.402 291.84 299.39 291.905 299.405Z" fill="#2C2C2C"/>
<path d="M336.364 303.884C340.858 303.884 340.818 310.897 336.364 310.897C331.909 310.897 331.839 303.854 336.364 303.884Z" fill="#2C2C2C"/>
<path d="M297.201 290.989C299.343 293.784 302.626 295.557 305.469 297.531C305.536 297.569 305.611 297.591 305.687 297.595C305.764 297.598 305.841 297.584 305.911 297.553C305.981 297.522 306.043 297.474 306.091 297.415C306.14 297.356 306.174 297.286 306.19 297.211C306.206 297.214 306.222 297.214 306.237 297.209C306.253 297.205 306.267 297.197 306.279 297.186C306.29 297.176 306.299 297.162 306.305 297.147C306.31 297.132 306.312 297.116 306.31 297.1C306.032 293.427 304.793 289.892 302.717 286.851C301.475 285.097 298.932 283.454 296.9 285.127C294.868 286.8 295.939 289.365 297.201 290.989ZM297.02 287.672C297.441 283.324 301.355 286.67 302.216 288.003C302.758 288.872 303.243 289.775 303.668 290.708C304.51 292.65 305.256 294.633 305.9 296.65C304.569 295.588 303.147 294.646 301.775 293.644C300.144 292.451 296.8 290.077 297.02 287.672Z" fill="#2C2C2C"/>
<path d="M320.527 294.596C320.227 291.981 317.243 291.409 315.141 291.8C311.54 292.556 308.199 294.241 305.451 296.69C305.436 296.699 305.424 296.711 305.416 296.726C305.408 296.741 305.403 296.758 305.403 296.775C305.403 296.792 305.408 296.809 305.416 296.824C305.424 296.839 305.436 296.851 305.451 296.86C305.408 296.925 305.382 296.998 305.375 297.075C305.367 297.152 305.378 297.23 305.406 297.301C305.434 297.373 305.48 297.437 305.538 297.487C305.596 297.538 305.666 297.574 305.741 297.591C309.165 298.132 312.749 299.144 316.242 298.593C318.285 298.313 320.817 297.07 320.527 294.596ZM311.107 297.351C309.415 297.131 307.753 296.82 306.101 296.66C307.993 295.708 309.835 294.656 311.818 293.924C312.77 293.546 313.747 293.231 314.741 292.983C316.282 292.632 321.428 292.922 318.745 296.349C317.173 298.233 313.119 297.601 311.107 297.351Z" fill="#2C2C2C"/>
<path d="M407.08 109.177C407.08 109.177 360.8 187.969 359.559 193.5C357.656 202.006 347.546 285.949 347.546 285.949L299.394 285.087C299.394 285.087 307.692 211.064 315.551 186.687C321.217 169.123 362.051 110.87 362.051 110.87L407.08 109.177Z" fill="#5E5E5E"/>
<path d="M303.789 277.693C310.706 277.643 335.213 277.372 344.412 278.224C344.431 278.224 344.449 278.232 344.462 278.245C344.475 278.258 344.483 278.276 344.483 278.294C344.483 278.313 344.475 278.331 344.462 278.344C344.449 278.357 344.431 278.364 344.412 278.364C341.249 278.815 310.706 278.104 303.789 277.883C303.774 277.888 303.758 277.89 303.742 277.887C303.726 277.885 303.711 277.879 303.699 277.869C303.686 277.86 303.675 277.848 303.668 277.834C303.661 277.82 303.657 277.804 303.657 277.788C303.657 277.772 303.661 277.757 303.668 277.743C303.675 277.728 303.686 277.716 303.699 277.707C303.711 277.698 303.726 277.692 303.742 277.689C303.758 277.687 303.774 277.688 303.789 277.693Z" fill="#2C2C2C"/>
<path d="M399.181 116.41C396.177 121.17 392.944 125.829 389.841 130.548C386.737 135.267 383.654 139.996 380.601 144.755C374.507 154.254 368.554 163.839 362.741 173.511C359.923 177.963 357.508 182.657 355.524 187.538C353.717 192.444 352.359 197.505 351.469 202.658C350.518 207.838 349.897 213.058 349.317 218.278C348.689 223.835 348.069 229.393 347.455 234.95C346.187 246.305 344.919 257.681 343.651 269.076C343.491 270.469 343.34 271.872 343.2 273.264C343.2 273.475 343.541 273.515 343.571 273.264C344.982 261.962 346.163 250.631 347.455 239.309L349.377 222.456C349.968 217.216 350.538 211.976 351.379 206.755C352.13 201.621 353.265 196.551 354.773 191.586C356.423 186.442 358.643 181.498 361.39 176.848C366.966 167.219 372.872 157.75 378.779 148.312C384.685 138.874 390.742 129.275 396.978 119.927C397.739 118.775 398.52 117.623 399.321 116.491C399.431 116.4 399.241 116.32 399.181 116.41Z" fill="#2C2C2C"/>
<path d="M366.165 321.969C368.358 322.109 427.502 306.509 429.344 304.545C429.425 304.426 429.473 304.288 429.484 304.144C429.714 302.2 426.691 294.936 424.568 285.628C424.438 285.037 423.327 282.211 421.765 278.394C417.471 267.924 409.813 249.929 409.813 249.929L371.201 259.848L385.416 288.454L387.338 295.177C387.338 295.177 367.807 310.817 366.025 313.212C364.243 315.606 363.983 321.808 366.165 321.969Z" fill="#E69482"/>
<path d="M366.165 321.969C368.358 322.109 427.502 306.509 429.344 304.545C429.425 304.426 429.473 304.288 429.484 304.144C429.714 302.201 426.691 294.937 424.568 285.629C424.438 285.037 423.327 282.212 421.765 278.395L385.426 288.414L387.348 295.137C387.348 295.137 367.817 310.777 366.035 313.172C364.253 315.567 363.983 321.809 366.165 321.969Z" fill="white"/>
<path d="M366.165 321.959C368.358 322.119 427.502 306.509 429.344 304.545C430.044 303.804 428.513 295.798 424.568 285.628L387.348 295.187C387.348 295.187 367.817 310.807 366.035 313.222C364.253 315.637 363.983 321.809 366.165 321.959Z" fill="#FFC42D"/>
<path d="M366.396 319.434C376.007 316.688 415.029 306.509 424.739 304.515C424.819 304.515 424.829 304.515 424.739 304.585C415.279 307.511 376.177 317.38 366.426 319.614C366.236 319.644 366.196 319.494 366.396 319.434Z" fill="#2C2C2C"/>
<path d="M369.209 310.136C370.276 309.827 371.397 309.745 372.498 309.893C373.599 310.042 374.658 310.418 375.606 310.998C377.32 312.029 378.574 313.678 379.11 315.606C379.11 315.667 379.009 315.697 378.989 315.606C378.166 313.774 376.77 312.258 375.011 311.288C373.253 310.318 371.227 309.945 369.239 310.226C369.233 310.235 369.224 310.243 369.214 310.247C369.203 310.252 369.192 310.254 369.181 310.252C369.17 310.251 369.159 310.246 369.151 310.239C369.142 310.232 369.136 310.222 369.132 310.212C369.128 310.201 369.128 310.189 369.131 310.179C369.133 310.168 369.139 310.158 369.147 310.15C369.155 310.142 369.165 310.136 369.176 310.134C369.187 310.131 369.198 310.132 369.209 310.136Z" fill="#2C2C2C"/>
<path d="M383.844 297.121C387.698 296.059 392.543 296.259 395.767 298.805C395.897 298.905 395.767 299.086 395.627 299.056C391.782 298.152 387.852 297.664 383.904 297.602C383.849 297.595 383.798 297.57 383.759 297.53C383.72 297.491 383.695 297.44 383.688 297.385C383.682 297.33 383.693 297.274 383.721 297.226C383.749 297.179 383.793 297.142 383.844 297.121Z" fill="#2C2C2C"/>
<path d="M381.161 299.065C385.016 298.002 389.861 298.203 393.084 300.749C393.214 300.849 393.084 301.029 392.934 300.999C389.088 300.114 385.158 299.647 381.211 299.606C381.14 299.613 381.068 299.591 381.013 299.544C380.958 299.498 380.923 299.432 380.916 299.36C380.91 299.289 380.932 299.217 380.978 299.162C381.024 299.106 381.09 299.071 381.161 299.065Z" fill="#2C2C2C"/>
<path d="M378.469 301.009C382.333 299.946 387.168 300.147 390.402 302.693C390.522 302.793 390.402 302.963 390.252 302.943C386.407 302.041 382.477 301.557 378.529 301.5C378.469 301.498 378.413 301.474 378.369 301.434C378.325 301.394 378.297 301.339 378.29 301.28C378.283 301.221 378.297 301.161 378.33 301.111C378.362 301.062 378.412 301.025 378.469 301.009Z" fill="#2C2C2C"/>
<path d="M375.786 302.942C379.64 301.89 384.485 302.09 387.708 304.636C387.839 304.736 387.708 304.907 387.568 304.877C383.722 303.985 379.793 303.504 375.846 303.443C375.779 303.451 375.712 303.433 375.66 303.391C375.607 303.35 375.573 303.289 375.565 303.223C375.557 303.157 375.576 303.09 375.617 303.037C375.659 302.984 375.719 302.95 375.786 302.942Z" fill="#2C2C2C"/>
<path d="M419.893 295.968C424.238 294.846 425.98 301.609 421.625 302.722C417.27 303.834 415.538 297.081 419.893 295.968Z" fill="#2C2C2C"/>
<path d="M378.759 293.464C381.552 295.618 385.176 296.47 388.42 297.682C388.494 297.702 388.572 297.705 388.647 297.69C388.723 297.674 388.794 297.642 388.854 297.594C388.915 297.546 388.963 297.485 388.995 297.415C389.028 297.345 389.043 297.268 389.04 297.191C389.057 297.191 389.073 297.186 389.087 297.178C389.102 297.17 389.114 297.159 389.123 297.145C389.132 297.131 389.137 297.115 389.138 297.099C389.14 297.082 389.137 297.066 389.13 297.051C387.927 293.563 385.828 290.453 383.044 288.033C381.402 286.661 378.519 285.709 376.977 287.853C375.436 289.997 377.137 292.211 378.759 293.464ZM377.758 290.308C377.057 285.989 381.692 288.244 382.864 289.306C383.612 290.005 384.311 290.754 384.956 291.55C386.27 293.208 387.497 294.933 388.63 296.72C387.068 296.039 385.456 295.498 383.875 294.866C381.973 294.125 378.138 292.682 377.748 290.308H377.758Z" fill="#2C2C2C"/>
<path d="M402.234 291.009C401.283 288.554 398.23 288.765 396.318 289.686C393.023 291.328 390.22 293.809 388.189 296.88C388.178 296.893 388.171 296.908 388.168 296.925C388.165 296.941 388.166 296.958 388.171 296.974C388.176 296.99 388.184 297.004 388.196 297.016C388.208 297.028 388.223 297.036 388.239 297.041C388.217 297.114 388.213 297.191 388.226 297.267C388.239 297.342 388.27 297.413 388.316 297.474C388.362 297.536 388.421 297.586 388.489 297.62C388.558 297.654 388.633 297.672 388.71 297.672C392.163 297.321 395.887 297.381 399.121 295.989C401.013 295.177 403.145 293.323 402.234 291.009ZM393.825 296.079C392.143 296.289 390.451 296.419 388.82 296.69C390.361 295.243 391.975 293.875 393.655 292.592C394.479 291.985 395.342 291.433 396.238 290.939C397.639 290.197 402.695 289.175 400.933 293.173C399.922 295.387 395.847 295.828 393.825 296.079Z" fill="#2C2C2C"/>
<path d="M382.773 286.58L426.04 275.218C426.04 275.218 384.615 193.63 384.996 187.999C385.296 182.989 415.339 139.225 417.03 131.029C419.743 117.613 413.216 105.629 406.89 98.2151L362.141 110.84C362.141 110.84 365.705 118.585 372.252 123.474C372.252 123.474 344.132 170.465 343.411 185.935C342.69 201.405 382.773 286.58 382.773 286.58Z" fill="#5E5E5E"/>
<path d="M381.952 278.565C388.219 276.771 386.397 277.202 392.694 275.469C395.777 274.627 416.029 269.086 419.032 268.796C419.102 268.796 419.133 268.896 419.032 268.926C416.269 270.168 395.927 275.358 392.834 276.14C386.507 277.743 388.299 277.212 381.952 278.755C381.882 278.765 381.832 278.565 381.952 278.565Z" fill="#2C2C2C"/>
<path d="M365.315 121.701C369.602 123.293 373.745 125.251 377.698 127.552C377.73 127.568 377.754 127.596 377.765 127.63C377.777 127.664 377.774 127.7 377.758 127.732C377.742 127.764 377.714 127.789 377.681 127.8C377.647 127.811 377.61 127.808 377.578 127.792C373.403 125.969 369.139 124.226 365.074 122.182C365.019 122.145 364.978 122.09 364.961 122.026C364.943 121.962 364.95 121.893 364.98 121.834C365.009 121.774 365.06 121.728 365.122 121.703C365.184 121.679 365.252 121.678 365.315 121.701Z" fill="#2C2C2C"/>
<path d="M370.571 120.599C370.888 121.386 371.156 122.192 371.371 123.013C371.606 123.654 371.712 124.335 371.682 125.017C371.669 125.04 371.65 125.059 371.627 125.072C371.604 125.085 371.578 125.092 371.552 125.092C371.525 125.092 371.499 125.085 371.476 125.072C371.454 125.059 371.435 125.04 371.421 125.017C371.046 124.418 370.763 123.766 370.581 123.083C370.31 122.332 370.02 121.591 369.78 120.839C369.61 120.358 370.4 120.118 370.571 120.599Z" fill="#2C2C2C"/>
<path d="M370.571 116.541C370.391 115.849 370.21 115.168 370.02 114.477C369.83 113.785 369.57 113.074 369.43 112.353C369.43 112.242 369.229 112.292 369.259 112.353C369.43 113.044 369.51 113.765 369.63 114.467C369.75 115.168 369.89 115.869 370.03 116.561C370.294 117.874 370.628 119.171 371.031 120.448C370.327 120.397 369.642 120.188 369.029 119.837C368.432 119.343 368.005 118.673 367.808 117.923C367.527 117.142 367.277 116.35 366.987 115.579C366.627 114.733 366.339 113.858 366.126 112.964C366.126 112.844 365.926 112.894 365.946 112.964C366.291 114.853 366.824 116.702 367.537 118.484C367.848 119.186 368.078 119.907 368.769 120.248C369.528 120.57 370.347 120.73 371.171 120.719C371.261 120.719 371.402 120.719 371.382 120.589C371.171 119.306 370.911 117.893 370.571 116.541Z" fill="#2C2C2C"/>
<path d="M371.311 125.037C369.609 128.113 367.667 131.049 365.845 134.055C364.023 137.061 362.381 139.986 360.719 142.992C357.376 149.064 354.272 155.296 351.439 161.628C350.038 164.761 348.703 167.93 347.435 171.137C346.116 174.327 345.029 177.609 344.182 180.956C343.385 184.296 343.236 187.759 343.741 191.155C344.374 194.638 345.271 198.068 346.424 201.415C348.743 209.081 351.566 216.585 354.873 223.879C354.983 224.119 355.384 223.939 355.294 223.688C352.931 217.016 350.488 210.363 348.356 203.65C346.304 197.097 343.861 190.304 344.992 183.34C345.624 180 346.576 176.729 347.836 173.571C349.05 170.325 350.345 167.115 351.72 163.943C354.443 157.681 357.486 151.599 360.609 145.537C362.351 142.14 364.183 138.784 365.955 135.397C367.727 132.011 369.469 128.504 371.461 125.218C371.521 125.027 371.401 124.947 371.311 125.037Z" fill="#2C2C2C"/>
<path d="M403.896 118.464C403.085 118.334 401.893 118.615 398.4 118.374C397.428 118.288 396.465 118.131 395.516 117.903C394.554 117.753 393.64 117.382 392.844 116.821C391.575 115.62 390.539 114.193 389.79 112.613C388.854 110.985 388.137 109.24 387.658 107.423C387.658 107.313 387.468 107.363 387.488 107.473C387.678 108.475 387.778 109.477 388.048 110.539C388.306 111.493 388.641 112.425 389.049 113.325C389.692 115.105 390.769 116.696 392.183 117.953C393.765 119.146 395.977 119.366 397.889 119.506C399 119.587 403.355 119.506 403.896 118.845C404.056 118.735 404.046 118.495 403.896 118.464Z" fill="#2C2C2C"/>
<path d="M415.298 265.9C409.839 254.799 404.5 243.627 399.281 232.385C394.062 221.144 388.996 209.818 384.084 198.41C382.726 195.731 381.642 192.921 380.851 190.023C380.18 186.847 381.161 184.012 382.503 181.136C384.999 175.921 387.789 170.853 390.862 165.957C393.865 161.027 397.108 156.208 400.282 151.368C403.564 146.628 406.572 141.704 409.292 136.62C411.754 131.7 413.126 126.46 412.425 120.949C411.724 115.439 409.352 110.349 406.819 105.51C406.148 104.237 405.458 102.975 404.817 101.692C404.767 101.602 404.617 101.692 404.677 101.782C407.5 106.852 410.213 112.172 411.534 117.813C412.215 120.625 412.425 123.53 412.155 126.41C411.803 129.318 410.985 132.149 409.732 134.796C407.38 139.966 404.096 144.736 401.003 149.475C397.909 154.214 394.616 159.143 391.532 164.053C388.4 168.968 385.523 174.041 382.913 179.252C381.772 181.587 380.521 184.022 380.24 186.637C379.94 189.512 380.971 192.258 382.082 194.853C386.887 206.135 391.953 217.326 397.098 228.458C402.244 239.589 407.58 250.761 412.996 261.822L414.998 266.001C415.128 266.231 415.378 266.071 415.298 265.9Z" fill="#2C2C2C"/>
<path d="M361.149 14.654C362.15 10.0751 367.236 -0.284937 377.277 1.73899C391.612 4.6346 393.685 32.2782 400.822 40.8949C413.746 56.5051 414.167 71.955 403.575 74.4298C391.702 77.1952 380.15 64.4104 380.55 36.857C380.821 19.6036 375.965 11.9588 372.542 12.4698C369.118 12.9808 367.226 17.3392 367.226 17.3392L361.149 14.654Z" fill="#2C2C2C"/>
<path d="M361.631 12.94C362.34 10.8042 363.305 8.76207 364.504 6.85824C365.707 4.90755 367.303 3.22876 369.189 1.92867C371.142 0.607982 373.46 -0.0649678 375.816 0.00494468C378.152 0.0754863 380.437 0.711501 382.473 1.85854C384.459 3.04761 386.166 4.65021 387.479 6.55765C388.776 8.43184 389.854 10.4489 390.692 12.5693C392.283 16.7732 393.397 21.1422 394.016 25.5945C392.925 21.2899 391.513 17.0732 389.791 12.9801C388.898 10.9787 387.801 9.07498 386.518 7.29908C385.271 5.54626 383.668 4.07787 381.813 2.99074C379.955 1.93066 377.872 1.32954 375.736 1.23734C373.622 1.13827 371.528 1.68327 369.73 2.80037C367.885 3.96433 366.284 5.47508 365.015 7.24899C364.351 8.1347 363.739 9.05802 363.183 10.0143C362.622 10.9361 362.111 11.9281 361.631 12.94Z" fill="#2C2C2C"/>
<path d="M380.501 27.3477C380.651 30.083 380.501 32.8283 380.441 35.5636C380.381 38.2989 380.271 41.0242 380.261 43.7494C380.251 46.4747 380.341 49.19 380.621 51.8852C380.849 54.5683 381.339 57.2227 382.083 59.8106C382.786 62.382 383.972 64.7961 385.576 66.9244C387.259 68.9961 389.292 70.7562 391.583 72.1244C393.876 73.5176 396.466 74.3484 399.141 74.5491C400.479 74.6526 401.825 74.5819 403.145 74.3387C403.824 74.2116 404.493 74.0375 405.147 73.8177C405.799 73.6248 406.42 73.3379 406.989 72.9661C405.873 73.7795 404.602 74.3558 403.255 74.6593C401.912 75.0096 400.529 75.1814 399.141 75.1703C397.74 75.1447 396.348 74.9462 394.996 74.5792C393.648 74.1997 392.348 73.6651 391.122 72.9861C389.894 72.3123 388.734 71.5204 387.659 70.6215L386.868 69.9402L386.107 69.2288C385.591 68.7421 385.109 68.2198 384.665 67.6658C382.944 65.431 381.666 62.887 380.901 60.1713C379.514 54.8078 378.981 49.2591 379.32 43.7294C379.4 40.9841 379.61 38.2488 379.85 35.5235C380.09 32.7982 380.411 30.083 380.501 27.3477Z" fill="#2C2C2C"/>
<path d="M360.329 14.7334C360.169 13.4609 360.94 11.7276 361.74 11.417C362.541 11.1064 368.928 13.1604 369.599 14.6933C370.27 16.2263 367.687 17.8595 367.687 17.8595L360.329 14.7334Z" fill="#FFC42D"/>
<path d="M367.978 59.8609C364.043 65.4818 335.593 88.7368 320.076 89.5985C313.068 89.9792 285.659 86.9934 279.552 84.4786C272.054 81.3926 286.88 62.8066 291.565 63.5981C297.432 64.6 318.234 66.7943 322.378 66.9045C329.026 67.0748 349.408 55.8831 363.132 52.9675C370.23 51.4746 371.021 55.5325 367.978 59.8609Z" fill="#E69482"/>
<path d="M367.667 60.9227C363.322 68.5074 347.986 81.5126 347.986 81.5126L345.373 76.6833L336.724 60.7424C336.724 60.7424 351.259 54.9511 360.9 52.1357C362.032 51.788 363.19 51.5333 364.363 51.3742C370.59 50.5727 371.401 54.4101 367.667 60.9227Z" fill="#DBDBDB"/>
<path d="M367.667 60.923C363.323 68.5077 347.986 81.5129 347.986 81.5129L345.373 76.6835L343.591 73.3972L336.714 60.7527C336.714 60.7527 351.26 54.9414 360.9 52.1259C362.034 51.7879 363.192 51.5366 364.364 51.3745C364.487 51.3652 364.611 51.3652 364.734 51.3745C370.62 50.7332 371.341 54.5406 367.667 60.923Z" fill="#DBDBDB"/>
<path d="M349.538 56.8251C349.871 58.2079 349.871 59.6504 349.538 61.0332C349.204 59.6504 349.204 58.2079 349.538 56.8251ZM345.423 65.0811C344.718 65.0697 344.014 65.154 343.331 65.3316C344.015 65.5042 344.718 65.5884 345.423 65.582C346.132 65.5878 346.838 65.5037 347.526 65.3316C346.839 65.1546 346.132 65.0704 345.423 65.0811ZM366.686 53.3183C365.978 53.3076 365.27 53.3918 364.584 53.5688C365.27 53.7457 365.978 53.83 366.686 53.8193C367.391 53.8244 368.094 53.7403 368.779 53.5688C368.094 53.3973 367.391 53.3131 366.686 53.3183ZM358.497 63.7786C358.993 64.2829 359.551 64.7207 360.159 65.0811C359.799 64.4726 359.362 63.9135 358.858 63.4179C358.36 62.9159 357.802 62.4783 357.196 62.1153C357.559 62.722 357.996 63.2808 358.497 63.7786ZM350.419 73.798C350.914 74.3054 351.472 74.7466 352.081 75.1105C351.724 74.4999 351.286 73.9404 350.779 73.4473C350.284 72.9398 349.726 72.4986 349.117 72.1348C349.462 72.7425 349.887 73.3018 350.379 73.798H350.419Z" fill="white"/>
<path d="M350.659 77.956C349.207 75.0203 342.8 63.1974 341.248 60.7327C341.138 60.5623 341.008 60.5824 341.088 60.7327C343.926 66.6398 347.081 72.3893 350.538 77.956C350.579 78.0763 350.699 78.0362 350.659 77.956Z" fill="#2C2C2C"/>
<path d="M367.667 60.9229C363.322 68.5076 347.986 81.5128 347.986 81.5128L345.373 76.6834L343.591 73.3971C351.91 65.1811 361.931 55.0715 364.734 51.3543C370.62 50.7331 371.341 54.5405 367.667 60.9229Z" fill="#A6A6A6"/>
<path d="M353.481 95.8606L355.754 120.909C358.815 120.768 361.866 120.46 364.893 119.987C372.878 118.788 380.79 117.139 388.589 115.048C396.327 113.044 405.397 110.279 415.768 106.591C415.768 106.591 392.313 64.2494 376.126 52.5667C375.755 52.2962 375.395 52.0457 375.024 51.8153C374.954 51.7552 374.884 51.7251 374.814 51.675C367.456 47.016 360.799 50.6731 357.115 55.8631C356.184 57.1656 347.174 77.6654 347.625 84.5387C348.035 90.5804 353.481 95.8606 353.481 95.8606Z" fill="#DBDBDB"/>
<path d="M366.496 69.0488C366.673 69.7323 366.757 70.4367 366.746 71.1429C366.757 71.8522 366.673 72.5599 366.496 73.2469C366.319 72.5599 366.235 71.8522 366.246 71.1429C366.239 70.437 366.323 69.7332 366.496 69.0488ZM371.952 95.2796C371.946 95.9888 372.03 96.6958 372.202 97.3837C372.384 96.6976 372.468 95.9893 372.452 95.2796C372.463 94.5703 372.379 93.8626 372.202 93.1756C372.03 93.8635 371.946 94.5705 371.952 95.2796ZM389.421 80.3507C389.41 81.0601 389.494 81.7677 389.671 82.4548C390.005 81.072 390.005 79.6294 389.671 78.2466C389.494 78.9337 389.41 79.6413 389.421 80.3507ZM357.386 92.0834C357.375 92.7928 357.459 93.5005 357.636 94.1875C357.97 92.8047 357.97 91.3622 357.636 89.9794C357.459 90.6664 357.375 91.3741 357.386 92.0834ZM377.568 73.6176C376.859 73.6118 376.153 73.696 375.465 73.8681C376.847 74.2019 378.288 74.2019 379.67 73.8681C378.986 73.6969 378.283 73.6127 377.578 73.6176H377.568ZM392.464 92.3039C391.755 92.2881 391.047 92.3724 390.362 92.5544C391.743 92.8881 393.184 92.8881 394.566 92.5544C393.883 92.3783 393.179 92.2941 392.474 92.3039H392.464ZM369.819 107.113C369.114 107.101 368.41 107.185 367.727 107.363C368.41 107.541 369.114 107.625 369.819 107.614C370.528 107.624 371.235 107.54 371.922 107.363C371.238 107.192 370.535 107.108 369.829 107.113H369.819ZM396.198 104.227C395.493 104.221 394.79 104.305 394.106 104.477C395.484 104.812 396.922 104.812 398.3 104.477C397.613 104.305 396.906 104.221 396.198 104.227ZM366.686 53.2883C365.977 53.2776 365.27 53.3618 364.584 53.5387C365.27 53.7157 365.977 53.7999 366.686 53.7892C367.391 53.7944 368.094 53.7102 368.778 53.5387C368.093 53.3774 367.39 53.3033 366.686 53.3183V53.2883ZM377.398 57.9272C377.893 58.4347 378.451 58.8759 379.059 59.2398C378.705 58.6274 378.267 58.0676 377.758 57.5766C377.263 57.0691 376.704 56.6279 376.096 56.264C376.457 56.8836 376.898 57.453 377.408 57.9573L377.398 57.9272ZM399.271 81.3627C399.766 81.8701 400.325 82.3113 400.933 82.6752C400.575 82.065 400.138 81.5056 399.632 81.012C399.135 80.5068 398.576 80.0658 397.97 79.6994C398.328 80.3185 398.765 80.8878 399.271 81.3927V81.3627ZM364.293 83.8675C364.788 84.375 365.347 84.8162 365.955 85.1801C365.208 83.9529 364.178 82.9223 362.952 82.1742C363.32 82.8059 363.772 83.3855 364.293 83.8976V83.8675ZM384.415 100.83C384.91 101.338 385.469 101.779 386.077 102.143C385.329 100.916 384.3 99.8852 383.074 99.1371C383.444 99.7582 383.895 100.328 384.415 100.83ZM358.547 63.7585C359.042 64.2629 359.601 64.7007 360.209 65.0611C359.849 64.4526 359.412 63.8935 358.908 63.3978C358.41 62.8959 357.852 62.4583 357.246 62.0953C357.591 62.7062 358.012 63.2717 358.497 63.7786L358.547 63.7585ZM357.126 76.9241C357.63 76.4266 358.071 75.8678 358.437 75.2608C357.827 75.6179 357.268 76.0561 356.775 76.5634C356.268 77.0588 355.827 77.6179 355.464 78.2266C356.051 77.8658 356.592 77.4352 357.076 76.9441L357.126 76.9241ZM404.627 94.8187C405.134 94.3257 405.572 93.7662 405.928 93.1555C404.699 93.8999 403.669 94.9313 402.925 96.1613C403.53 95.7936 404.086 95.3491 404.577 94.8388L404.627 94.8187ZM359.718 101.993C360.222 101.497 360.66 100.938 361.02 100.329C359.791 101.074 358.76 102.105 358.017 103.335C358.622 102.968 359.177 102.523 359.668 102.013L359.718 101.993ZM386.527 67.4557C387.034 66.9603 387.475 66.4012 387.839 65.7925C387.229 66.1538 386.67 66.5952 386.177 67.105C385.67 67.6005 385.229 68.1595 384.866 68.7683C385.455 68.4071 385.997 67.9728 386.477 67.4758L386.527 67.4557ZM379.88 112.443C380.39 111.95 380.831 111.39 381.192 110.78C380.582 111.141 380.023 111.582 379.53 112.092C379.023 112.588 378.582 113.147 378.218 113.755C378.808 113.394 379.349 112.96 379.83 112.463L379.88 112.443ZM379.88 85.3905C380.392 84.8998 380.834 84.34 381.192 83.7272C379.966 84.4753 378.936 85.5059 378.188 86.7331C378.801 86.3594 379.36 85.9044 379.85 85.3805L379.88 85.3905Z" fill="white"/>
<path d="M370.22 51.2442C370.08 52.2462 366.096 58.7588 361.751 58.9291C360.329 58.9792 359.699 51.2643 359.699 51.2643L359.519 50.7032L357.046 42.878L365.895 36.0949L367.187 35.1831C367.187 35.1831 367.717 37.3774 368.358 40.1026L368.448 40.4934C368.448 40.6437 368.528 40.784 368.558 40.9343L368.859 42.1666C368.929 42.4873 368.999 42.7979 369.059 43.1686L369.269 44.1705C369.747 46.5039 370.065 48.8674 370.22 51.2442Z" fill="#E69482"/>
<path d="M368.398 40.1026C367.787 42.4145 366.68 44.5652 365.153 46.4047C363.626 48.2441 361.717 49.7282 359.559 50.7533L357.086 42.9281L365.895 36.0949L367.187 35.1831C367.187 35.1831 367.717 37.3273 368.398 40.1026Z" fill="#2C2C2C"/>
<path d="M346.075 31.0853C346.005 45.4932 354.624 47.1664 357.727 47.1764C360.54 47.1764 370.141 46.8658 371.742 32.5381C373.344 18.2103 366.627 13.6315 360.19 13.2607C353.753 12.89 346.145 16.6473 346.075 31.0853Z" fill="#E69482"/>
<path d="M370.91 33.51C368.558 33.7504 367.907 28.8109 367.907 28.8109C367.907 28.8109 363.112 28.9511 361.36 22.0778C361.546 24.1454 362.332 26.1134 363.623 27.7388C363.623 27.7388 355.123 27.0775 351.379 20.0639C351.379 20.0639 352.891 23.6409 354.252 24.8933C352.091 24.283 350.198 22.9632 348.877 21.146C348.877 21.146 347.495 25.274 346.384 26.4263C346.384 26.4263 344.742 19.1722 347.755 15.4049C354.102 7.38937 364.524 14.403 364.524 14.403C364.524 14.403 370.35 15.2847 372.432 19.6531C375.646 26.3361 370.91 33.51 370.91 33.51Z" fill="#2C2C2C"/>
<path d="M369.399 33.6002C369.399 33.6002 372.162 28.861 374.294 29.8129C376.427 30.7647 374.595 37.4577 372.292 38.5398C372.007 38.7002 371.694 38.8015 371.369 38.8379C371.044 38.8742 370.716 38.8447 370.403 38.7512C370.09 38.6577 369.799 38.5021 369.547 38.2936C369.296 38.0852 369.089 37.8281 368.938 37.5378L369.399 33.6002Z" fill="#E69482"/>
<path d="M347.876 28.1703C348.214 28.1115 348.548 28.0311 348.877 27.9297C349.23 27.89 349.561 27.7351 349.818 27.4887C349.888 27.3986 349.927 27.2875 349.927 27.173C349.927 27.0585 349.888 26.9473 349.818 26.8572C349.647 26.707 349.439 26.6047 349.216 26.5607C348.992 26.5167 348.761 26.5326 348.546 26.6066C348.088 26.6937 347.678 26.9471 347.395 27.3183C347.34 27.4029 347.309 27.5009 347.306 27.6018C347.303 27.7027 347.327 27.8025 347.377 27.8904C347.426 27.9783 347.499 28.0509 347.587 28.1002C347.675 28.1496 347.775 28.1738 347.876 28.1703Z" fill="#2C2C2C"/>
<path d="M357.266 29.2922C356.93 29.2587 356.595 29.2051 356.265 29.1318C355.899 29.1248 355.546 28.9941 355.264 28.7609C355.192 28.6717 355.152 28.5602 355.152 28.4452C355.152 28.3302 355.192 28.2188 355.264 28.1295C355.421 27.9654 355.619 27.8471 355.838 27.787C356.056 27.727 356.287 27.7276 356.505 27.7887C356.97 27.8401 357.4 28.0572 357.717 28.4001C357.782 28.4826 357.822 28.582 357.832 28.6864C357.843 28.7909 357.823 28.8962 357.776 28.9899C357.728 29.0837 357.655 29.1619 357.565 29.2154C357.475 29.269 357.371 29.2956 357.266 29.2922Z" fill="#2C2C2C"/>
<path d="M355.384 32.2373C355.384 32.2373 355.454 32.2373 355.454 32.3275C355.454 33.3294 355.584 34.4516 356.455 34.7622V34.8223C355.384 34.682 355.173 33.1791 355.384 32.2373Z" fill="#2C2C2C"/>
<path d="M356.215 31.1951C357.797 31.0449 357.977 34.201 356.506 34.3713C355.034 34.5416 354.884 31.3154 356.215 31.1951Z" fill="#2C2C2C"/>
<path d="M356.845 31.3257C357.135 31.4961 357.426 31.7968 357.766 31.8168C358.106 31.8369 358.427 31.476 358.667 31.1453H358.717C358.717 31.7567 358.557 32.3982 357.916 32.5285C357.275 32.6588 356.915 32.1276 356.675 31.5262C356.645 31.4359 356.735 31.2656 356.845 31.3257Z" fill="#2C2C2C"/>
<path d="M349.868 32.2874C349.868 32.2874 349.788 32.3374 349.798 32.3775C349.888 33.3795 349.798 34.5117 348.957 34.8924C348.957 34.8924 348.957 34.9525 348.957 34.8924C350.048 34.7221 350.108 33.2091 349.868 32.2874Z" fill="#2C2C2C"/>
<path d="M348.917 31.3154C347.325 31.3154 347.405 34.4816 348.917 34.5016C350.429 34.5217 350.258 31.3355 348.917 31.3154Z" fill="#2C2C2C"/>
<path d="M348.266 31.536C348.016 31.7165 347.776 32.0272 347.475 32.0573C347.175 32.0873 346.855 31.7465 346.624 31.4158H346.574C346.574 32.0272 346.794 32.6587 347.385 32.7589C347.976 32.8591 348.296 32.3179 348.386 31.7064C348.456 31.6363 348.376 31.4659 348.266 31.536Z" fill="#2C2C2C"/>
<path d="M351.519 36.6558C351.519 36.6558 351.379 38.0986 351.379 38.83C352.727 38.789 354.074 38.9305 355.384 39.2508C355.694 39.341 355.674 39.0805 355.324 38.8901C354.279 38.3273 353.091 38.0867 351.91 38.1988C351.86 38.0084 352.17 35.9243 352.06 35.9243C351.523 35.9919 350.997 36.1335 350.498 36.3452C350.699 33.2492 351.399 30.2033 351.55 27.1173C351.55 27.0934 351.54 27.0704 351.523 27.0535C351.506 27.0366 351.483 27.0271 351.459 27.0271C351.435 27.0271 351.413 27.0366 351.396 27.0535C351.379 27.0704 351.369 27.0934 351.369 27.1173C350.523 30.3504 350 33.6597 349.808 36.9964C349.838 37.3671 351.249 36.786 351.519 36.6558Z" fill="#2C2C2C"/>
<path d="M353.011 38.8303C353.513 39.4903 354.215 39.9688 355.013 40.1934C356.224 40.3137 356.304 39.1911 354.953 38.6799C354.304 38.5511 353.632 38.6031 353.011 38.8303Z" fill="#2C2C2C"/>
<path d="M355.033 40.1932C354.577 40.1166 354.151 39.9154 353.802 39.6119C354.022 39.221 354.583 38.7799 355.904 39.4114C356.114 39.8725 355.804 40.2734 355.033 40.1932Z" fill="#FF99BA"/>
<path d="M368.108 49.5208C369.87 49.5208 372.833 49.9616 376.837 53.0075C376.837 53.0075 368.488 59.7305 360.72 59.7305C357.947 59.7305 357.116 55.853 357.116 55.853C357.116 55.853 360.85 49.5809 368.108 49.5208Z" fill="#E69482"/>
<path d="M500 338H467.295C443.53 338 428.994 321.558 426.381 291.71C425.09 276.992 424.299 259.177 423.468 240.321C420.905 182.378 417.391 103.055 394.857 103.055H368.959V97.043H394.857C423.127 97.043 426.351 169.754 429.464 240.07C430.295 258.867 431.086 276.621 432.367 291.169C433.999 309.785 441.377 331.978 467.295 331.978H500V338Z" fill="#FFC42D"/>
<path opacity="0.2" d="M387.98 97.0229L386.698 103.035H368.959V97.0229H387.98Z" fill="#2C2C2C"/>
<path d="M320.145 64.0488H309.674V137.281H320.145V64.0488Z" fill="#FFC42D"/>
<path d="M309.684 69.4595H269.871V131.119H309.684V69.4595Z" fill="#FFC42D"/>
<path opacity="0.2" d="M309.675 69.4695V131.129H299.784L295.35 69.4695H309.675Z" fill="#2C2C2C"/>
<path d="M239.318 80.531H269.861V89.7489H239.318C238.272 89.7489 237.269 89.3329 236.529 88.5926C235.79 87.8523 235.374 86.8482 235.374 85.8012V84.4887C235.373 83.9694 235.474 83.455 235.671 82.9749C235.869 82.4948 236.159 82.0584 236.526 81.6908C236.892 81.3232 237.327 81.0315 237.807 80.8324C238.286 80.6334 238.799 80.531 239.318 80.531Z" fill="#DBDBDB"/>
<path d="M269.862 80.531H259.141V89.7388H269.862V80.531Z" fill="#A6A6A6"/>
<path d="M239.318 110.84H269.861V120.057H239.318C238.272 120.057 237.269 119.642 236.529 118.901C235.79 118.161 235.374 117.157 235.374 116.11V114.797C235.373 114.278 235.474 113.764 235.671 113.283C235.869 112.803 236.159 112.367 236.526 111.999C236.892 111.632 237.327 111.34 237.807 111.141C238.286 110.942 238.799 110.84 239.318 110.84Z" fill="#DBDBDB"/>
<path d="M269.862 110.84H259.141V120.047H269.862V110.84Z" fill="#A6A6A6"/>
<path d="M382.023 94.4077H350.919V106.702H382.023V94.4077Z" fill="#FFC42D"/>
<path d="M382.023 94.4177H350.919V106.712H382.023V94.4177Z" fill="#FFC42D"/>
<path opacity="0.2" d="M361.841 94.4177L360.82 106.712H350.919V94.4177H361.841Z" fill="#2C2C2C"/>
<path d="M320.146 71.7839H344.762C346.395 71.7839 347.961 72.4331 349.116 73.5887C350.27 74.7443 350.919 76.3116 350.919 77.9459V122.643C350.919 124.277 350.27 125.844 349.116 127C347.961 128.155 346.395 128.804 344.762 128.804H320.146V71.7839Z" fill="#FFC42D"/>
<path opacity="0.2" d="M333.24 71.7839L328.806 128.804H320.156V71.7839H333.24Z" fill="#2C2C2C"/>
<g opacity="0.2">
<path opacity="0.2" d="M330.947 83.3064H328.985V117.272H330.947V83.3064Z" fill="#2C2C2C"/>
<path opacity="0.2" d="M336.513 83.3064H334.551V117.272H336.513V83.3064Z" fill="#2C2C2C"/>
<path opacity="0.2" d="M342.079 83.3064H340.117V117.272H342.079V83.3064Z" fill="#2C2C2C"/>
</g>
<path d="M379.14 60.0111C382.584 69.6799 377.648 105.099 371.812 112.603C363.143 123.725 346.014 133.954 339.467 137.151C336.604 138.543 323.78 118.024 326.573 116.11C332.58 111.992 351.71 102.163 353.332 100.209C354.954 98.2553 363.683 79.4889 367.177 68.9384C371.872 54.771 377.408 55.1317 379.14 60.0111Z" fill="#E69482"/>
<path d="M339.446 137.211C330.367 142.401 312.297 141.639 309.834 140.888L306.651 139.886C302.857 138.814 301.836 136.72 301.836 136.72C301.836 136.72 297.091 136.78 296.57 133.914C295.99 130.698 302.767 131.239 306.681 129.255C315.691 124.716 327.123 115.739 329.576 114.176L339.446 137.211Z" fill="#E69482"/>
<path d="M319.426 131.119C316.819 132.486 314.119 133.668 311.347 134.656C308.253 135.554 305.098 136.224 301.907 136.66C301.891 136.666 301.878 136.676 301.869 136.689C301.86 136.703 301.854 136.719 301.854 136.735C301.854 136.751 301.86 136.767 301.869 136.781C301.878 136.794 301.891 136.804 301.907 136.81C308.17 136.64 314.267 134.755 319.536 131.36C319.666 131.279 319.556 131.059 319.426 131.119Z" fill="#2C2C2C"/>
<path d="M322.949 136.139C320.286 137.241 315.591 139.145 306.642 139.806C306.642 139.806 306.642 139.856 306.642 139.866C312.325 140.259 318.006 139.062 323.049 136.409C323.21 136.289 323.129 136.069 322.949 136.139Z" fill="#2C2C2C"/>
<path d="M317.143 123.113C318.074 122.111 317.523 121.57 315.061 122.011C312.598 122.452 303.238 126.32 302.167 122.943C301.095 119.566 314.39 114.296 318.544 113.865C322.298 113.671 326.061 113.782 329.796 114.196C327.414 115.739 321.768 120.027 317.143 123.113Z" fill="#E69482"/>
<path d="M369.479 62.4457C375.535 49.6909 381.061 53.0675 381.592 65.6819C381.771 74.442 381.376 83.2043 380.411 91.9128L358.457 85.6206C358.457 85.6206 365.605 70.6115 369.479 62.4457Z" fill="#DBDBDB"/>
<path d="M374.945 55.0115C376.171 55.7596 377.201 56.7901 377.948 58.0173C376.722 57.2692 375.693 56.2386 374.945 55.0115ZM366.246 71.1628C366.235 71.8722 366.319 72.5798 366.496 73.2669C366.673 72.5798 366.757 71.8722 366.746 71.1628C366.758 70.4566 366.673 69.7522 366.496 69.0687C366.323 69.7532 366.239 70.4569 366.246 71.1628ZM377.578 73.6376C376.869 73.6318 376.163 73.7159 375.476 73.8881C376.857 74.2218 378.299 74.2218 379.68 73.8881C378.994 73.7092 378.287 73.6183 377.578 73.6175V73.6376ZM364.294 83.8975C364.789 84.4049 365.347 84.8461 365.955 85.21C365.208 83.9828 364.178 82.9523 362.952 82.2042C363.323 82.8253 363.774 83.3946 364.294 83.8975ZM379.85 85.3803C380.363 84.8896 380.804 84.3298 381.162 83.7171C379.936 84.4652 378.906 85.4958 378.159 86.7229C378.781 86.3546 379.35 85.9029 379.85 85.3803Z" fill="white"/>
<path d="M367.397 66.3333C366.576 68.0066 365.715 69.6498 364.854 71.3431C365.001 70.5615 365.121 69.77 365.215 68.9685H365.155C365.035 69.5897 364.884 70.2109 364.764 70.8321C364.714 71.1327 364.654 71.4332 364.594 71.7338C364.594 71.7939 364.594 71.854 364.594 71.9242C363.923 73.2067 363.263 74.4992 362.592 75.8017C361.831 77.3647 361.12 78.9378 360.4 80.5108C359.679 82.0839 359.008 84.0076 358.197 85.6007C358.887 85.8883 359.605 86.1032 360.34 86.2419C360.53 86.3121 360.63 86.1217 360.43 86.0916C360.229 86.0616 358.588 85.4103 358.568 85.4003C359.288 83.8072 360.179 82.3043 360.94 80.7413C361.701 79.1782 362.482 77.6353 363.213 76.0622C364.694 72.876 365.996 69.5997 367.467 66.4035C367.467 66.3233 367.397 66.2933 367.397 66.3333Z" fill="#2C2C2C"/>
<path d="M382.504 73.9279C382.304 74.5792 382.073 75.2304 381.903 75.9318C381.843 76.2123 381.773 76.4829 381.703 76.7634C381.783 74.479 381.856 72.2012 381.923 69.9302C381.613 73.6574 381.293 77.3746 381.052 81.1018C380.704 84.6712 380.54 88.2563 380.562 91.8426C379.904 91.6866 379.234 91.5827 378.56 91.532C379.287 91.8416 380.051 92.0603 380.832 92.1833C381.383 88.5763 381.423 84.5886 381.603 80.9615C381.653 79.9596 381.683 78.9577 381.723 77.8856C381.843 77.2544 382.023 76.6332 382.193 76.012C382.364 75.3908 382.494 74.6694 382.634 74.0081C382.584 73.9079 382.514 73.8878 382.504 73.9279Z" fill="#2C2C2C"/>
<path d="M379.52 88.5864C376.427 87.4843 363.613 83.4364 360.79 82.7451C360.59 82.695 360.51 82.8052 360.71 82.8753C366.851 85.1596 373.114 87.103 379.47 88.6966C379.55 88.7267 379.6 88.6064 379.52 88.5864Z" fill="#2C2C2C"/>
<path d="M271.895 85.1899C274.898 86.1117 274.287 82.0037 274.287 82.0037C274.287 82.0037 276.64 87.6947 280.134 87.4443C283.627 87.1938 282.546 82.2542 282.486 81.8935C282.606 82.1941 284.909 87.3641 288.392 86.7529C291.876 86.1417 290.204 81.3124 290.084 81.0118C290.295 81.2523 293.088 84.4484 295.65 83.3764C300.015 81.5328 293.047 73.1566 293.558 69.3492L299.695 69.5295C299.896 69.51 300.097 69.4799 300.295 69.4394L300.526 66.3033C298.565 65.5065 296.67 64.555 294.859 63.4578C292.547 62.1552 290.315 60.9729 288.653 60.9329C287.907 60.893 287.169 61.0947 286.546 61.508C285.924 61.9213 285.452 62.5242 285.199 63.2273C285.199 63.2273 283.397 60.3818 280.634 60.7826C279.223 60.993 278.302 63.4477 278.302 63.4477C277.858 62.8193 277.249 62.3264 276.542 62.0239C275.835 61.7214 275.058 61.6212 274.297 61.7344C272.355 62.1352 271.734 64.5399 271.734 64.5399C271.734 64.5399 269.272 63.087 267.42 64.1491C263.706 66.2131 265.408 83.186 271.895 85.1899Z" fill="#E69482"/>
<path d="M294.317 68.9886L299.663 69.4796C299.865 69.4601 300.065 69.4299 300.264 69.3894C307.011 68.167 311.216 60.432 306.27 59.881C302.556 59.4501 298.532 64.3897 294.778 63.3978L294.317 68.9886Z" fill="#E69482"/>
<path d="M271.604 64.8506H271.514C270.663 70.7772 271.633 76.8227 274.297 82.1842C274.387 82.3545 274.697 82.2744 274.637 82.074C272.795 76.5109 271.773 70.7088 271.604 64.8506Z" fill="#2C2C2C"/>
<path d="M278.301 63.3175C278.301 63.2474 278.191 63.2474 278.181 63.3175C277.279 69.8522 278.742 76.4942 282.305 82.0438C282.435 82.2342 282.746 82.2742 282.605 82.0438C280.383 78.1763 278.301 68.8182 278.301 63.3175Z" fill="#2C2C2C"/>
<path d="M290.484 81.2524C287.03 75.8019 285.659 69.7902 285.148 63.4179C285.148 63.3377 285.028 63.3577 285.008 63.4179C284.417 66.604 285.168 70.6318 286.009 73.7178C286.744 76.5955 288.217 79.2309 290.284 81.3626C290.384 81.4528 290.564 81.3727 290.484 81.2524Z" fill="#2C2C2C"/>
<path d="M205.922 309.625C203.849 310.316 144.515 310.146 142.253 308.713C141.402 308.172 140.922 299.515 140.641 289.045C140.571 286.79 140.531 284.456 140.491 282.081C140.491 279.276 140.411 276.43 140.391 273.665C140.321 261.261 140.491 250.34 140.491 250.34H179.123V273.665V282.081L178.923 289.045C178.923 289.045 201.607 299.285 203.95 301.128C206.292 302.972 207.994 308.984 205.922 309.625Z" fill="#E2AC93"/>
<path d="M205.922 309.625C203.85 310.316 144.516 310.146 142.254 308.713C141.403 308.172 140.922 299.515 140.642 289.045C140.572 286.79 140.532 284.456 140.492 282.081C140.492 279.276 140.412 276.43 140.392 273.665H179.103V282.081L178.903 289.045C178.903 289.045 201.588 299.285 203.93 301.128C206.273 302.972 207.995 308.983 205.922 309.625Z" fill="white"/>
<path d="M206.103 309.755C204.751 310.206 179.484 310.296 161.054 309.916C156.789 309.815 152.895 309.705 149.762 309.565C145.427 309.364 142.524 309.134 142.053 308.833C141.002 308.162 140.512 295.457 140.271 282.052H179.083L178.883 289.065C178.883 289.065 201.698 299.365 204.02 301.219C206.343 303.072 208.225 309.054 206.103 309.755Z" fill="#FFC42D"/>
<path d="M205.222 307.371C195.211 307.09 154.867 306.93 144.957 307.421C144.876 307.421 144.876 307.471 144.957 307.481C154.867 307.972 195.221 307.802 205.222 307.531C205.462 307.521 205.472 307.371 205.222 307.371Z" fill="#2C2C2C"/>
<path d="M180.335 286.841C176.4 286.099 171.585 286.69 168.572 289.486C168.452 289.596 168.572 289.756 168.742 289.716C172.506 288.509 176.39 287.713 180.325 287.342C180.391 287.343 180.455 287.318 180.503 287.272C180.551 287.226 180.579 287.163 180.58 287.096C180.581 287.03 180.556 286.965 180.51 286.918C180.464 286.87 180.401 286.842 180.335 286.841Z" fill="#2C2C2C"/>
<path d="M183.198 288.584C179.264 287.832 174.448 288.424 171.425 291.229C171.315 291.329 171.425 291.5 171.595 291.46C175.365 290.245 179.255 289.442 183.198 289.065C183.25 289.05 183.295 289.018 183.328 288.975C183.36 288.931 183.378 288.879 183.378 288.824C183.378 288.77 183.36 288.717 183.328 288.674C183.295 288.631 183.25 288.599 183.198 288.584Z" fill="#2C2C2C"/>
<path d="M186.012 290.287C182.077 289.536 177.262 290.127 174.249 292.922C174.129 293.033 174.249 293.203 174.409 293.163C178.175 291.959 182.057 291.16 185.992 290.778C186.049 290.769 186.101 290.741 186.14 290.697C186.178 290.654 186.201 290.599 186.203 290.541C186.205 290.483 186.188 290.426 186.153 290.38C186.118 290.334 186.068 290.301 186.012 290.287Z" fill="#2C2C2C"/>
<path d="M188.844 292.011C184.91 291.259 180.095 291.851 177.082 294.646C176.962 294.756 177.082 294.927 177.252 294.886C181.012 293.677 184.892 292.878 188.824 292.502C188.882 292.493 188.934 292.464 188.973 292.421C189.011 292.378 189.033 292.322 189.036 292.265C189.038 292.207 189.02 292.15 188.985 292.103C188.951 292.057 188.901 292.024 188.844 292.011Z" fill="#2C2C2C"/>
<path d="M187.632 277.753C186.091 275.619 183.207 276.571 181.566 277.944C178.782 280.363 176.683 283.473 175.479 286.961C175.472 286.976 175.47 286.993 175.471 287.009C175.472 287.026 175.478 287.041 175.487 287.055C175.496 287.069 175.508 287.081 175.522 287.089C175.537 287.097 175.553 287.101 175.569 287.101C175.569 287.402 175.849 287.723 176.18 287.592C179.433 286.4 183.067 285.528 185.85 283.364C187.482 282.102 189.094 279.777 187.632 277.753ZM180.745 284.767C179.163 285.388 177.551 285.939 175.99 286.62C177.125 284.832 178.351 283.103 179.664 281.44C180.306 280.642 181.005 279.892 181.756 279.196C182.927 278.124 187.572 275.87 186.861 280.198C186.471 282.573 182.637 284.015 180.745 284.767Z" fill="#2C2C2C"/>
<path d="M165.478 285.889C168.711 287.281 172.486 287.221 175.889 287.572C175.966 287.572 176.041 287.553 176.11 287.519C176.178 287.485 176.238 287.436 176.285 287.375C176.331 287.314 176.363 287.243 176.378 287.168C176.392 287.092 176.39 287.015 176.37 286.941C176.382 286.931 176.392 286.919 176.399 286.905C176.406 286.891 176.41 286.876 176.41 286.861C176.41 286.845 176.406 286.83 176.399 286.816C176.392 286.802 176.382 286.79 176.37 286.78C174.35 283.71 171.561 281.222 168.281 279.566C166.339 278.645 163.276 278.444 162.355 280.899C161.434 283.354 163.586 285.077 165.478 285.889ZM163.706 283.083C161.944 279.075 167 280.077 168.401 280.829C169.3 281.328 170.166 281.883 170.994 282.492C172.679 283.773 174.296 285.141 175.839 286.59C174.157 286.32 172.466 286.189 170.774 285.979C168.752 285.728 164.677 285.288 163.706 283.083Z" fill="#2C2C2C"/>
<path d="M184.609 279.326L136.738 280.188C136.738 280.188 130.221 237.796 125.936 211.435C124.314 201.526 123.033 193.871 122.512 191.566C121.271 186.066 97.0146 98.7564 97.0146 98.7564L131.812 98.7063H143.705C143.705 98.7063 142.944 113.305 143.395 114.838C149.601 135.969 162.285 173.441 166.249 186.496C172.326 206.565 184.609 279.326 184.609 279.326Z" fill="#A6A6A6"/>
<path d="M180.255 271.982C173.387 271.932 149.021 271.661 139.871 272.513C139.858 272.518 139.847 272.527 139.839 272.539C139.831 272.55 139.827 272.564 139.827 272.578C139.827 272.592 139.831 272.606 139.839 272.617C139.847 272.629 139.858 272.638 139.871 272.643C143.025 273.094 173.387 272.393 180.265 272.172C180.28 272.176 180.296 272.177 180.312 272.173C180.327 272.17 180.341 272.163 180.354 272.153C180.366 272.143 180.376 272.13 180.382 272.116C180.389 272.102 180.391 272.086 180.391 272.07C180.39 272.054 180.385 272.039 180.377 272.025C180.369 272.012 180.358 272 180.345 271.991C180.332 271.983 180.317 271.977 180.301 271.976C180.285 271.974 180.27 271.976 180.255 271.982Z" fill="#2C2C2C"/>
<path d="M137.518 235.852C135.863 224.891 134.018 213.956 131.982 203.048C130.981 197.688 129.89 192.338 128.489 187.017C127.087 181.697 125.305 176.437 123.483 171.217C119.899 160.837 116.476 150.406 113.262 139.906C110.049 129.406 107.055 118.865 104.252 108.235C103.892 106.892 103.542 105.549 103.151 104.227C103.151 104.117 102.961 104.167 102.981 104.227C104.072 109.577 105.484 114.877 106.835 120.168C108.187 125.458 109.638 130.728 111.15 135.978C114.193 146.519 117.493 156.986 121.05 167.379C122.822 172.549 124.664 177.709 126.236 182.949C127.808 188.19 129.029 193.5 130.12 198.85C132.333 209.711 134.215 220.642 135.957 231.574C137.698 242.505 139.19 253.616 140.652 264.638C140.842 266.03 141.022 267.433 141.202 268.836C141.252 269.227 141.873 269.227 141.833 268.836C140.702 257.845 139.15 246.833 137.518 235.852Z" fill="#2C2C2C"/>
<path d="M131.812 98.6863L125.936 211.435C124.314 201.526 123.033 193.871 122.512 191.566C121.271 186.066 97.0146 98.7564 97.0146 98.7564L131.812 98.6863Z" fill="#2C2C2C"/>
<path d="M146.549 319.123C144.476 319.814 85.1424 319.644 82.8799 318.201C82.029 317.67 81.5485 309.013 81.2682 298.543C81.1981 296.279 81.1581 293.954 81.118 291.58C81.118 288.764 81.0379 285.929 81.0179 283.163C80.9478 270.759 81.118 259.838 81.118 259.838H119.74V291.59L119.539 298.553C119.539 298.553 142.224 308.793 144.567 310.637C146.909 312.48 148.621 318.442 146.549 319.123Z" fill="#E2AC93"/>
<path d="M146.548 319.123C144.476 319.814 85.142 319.644 82.8796 318.201C82.0287 317.67 81.5482 309.013 81.2678 298.543C81.1978 296.279 81.1577 293.954 81.1177 291.58C81.1177 288.764 81.0376 285.929 81.0176 283.163H119.729V291.59L119.529 298.553C119.529 298.553 142.214 308.793 144.556 310.637C146.899 312.48 148.621 318.442 146.548 319.123Z" fill="white"/>
<path d="M146.728 319.213C145.377 319.654 120.1 319.744 101.68 319.364C97.4251 319.274 93.5309 319.153 90.3875 319.023C86.0628 318.823 83.1597 318.582 82.6791 318.282C81.6781 317.61 81.1375 304.916 80.9072 291.51H119.719L119.519 298.523C119.519 298.523 142.354 308.813 144.676 310.627C146.999 312.44 148.811 318.512 146.728 319.213Z" fill="#FFC42D"/>
<path d="M145.878 316.819C135.867 316.548 95.5135 316.378 85.6128 316.869C85.5327 316.869 85.5327 316.929 85.6128 316.939C95.5135 317.42 135.877 317.26 145.878 316.989C146.088 316.979 146.088 316.829 145.878 316.819Z" fill="#2C2C2C"/>
<path d="M120.961 296.299C117.027 295.548 112.211 296.139 109.198 298.934C109.078 299.045 109.198 299.215 109.358 299.175C113.124 297.971 117.007 297.172 120.941 296.79C120.998 296.781 121.05 296.753 121.089 296.709C121.128 296.666 121.15 296.611 121.152 296.553C121.155 296.495 121.137 296.438 121.102 296.392C121.067 296.346 121.017 296.313 120.961 296.299Z" fill="#2C2C2C"/>
<path d="M123.794 298.022C119.859 297.271 115.044 297.862 112.031 300.657C111.911 300.768 112.031 300.938 112.201 300.898C115.965 299.688 119.848 298.888 123.784 298.513C123.841 298.503 123.892 298.473 123.93 298.429C123.967 298.385 123.988 298.33 123.989 298.272C123.991 298.214 123.972 298.158 123.936 298.112C123.9 298.067 123.85 298.035 123.794 298.022Z" fill="#2C2C2C"/>
<path d="M126.637 299.735C122.703 298.994 117.888 299.585 114.865 302.381C114.754 302.491 114.865 302.651 115.035 302.611C118.8 301.41 122.683 300.614 126.617 300.236C126.684 300.239 126.748 300.215 126.797 300.17C126.846 300.125 126.875 300.062 126.878 299.996C126.88 299.93 126.856 299.865 126.811 299.816C126.766 299.767 126.704 299.738 126.637 299.735Z" fill="#2C2C2C"/>
<path d="M129.47 301.459C125.535 300.717 120.72 301.309 117.707 304.104C117.587 304.214 117.707 304.374 117.867 304.334C121.633 303.134 125.516 302.338 129.45 301.96C129.516 301.962 129.581 301.939 129.63 301.894C129.678 301.848 129.707 301.786 129.71 301.719C129.713 301.653 129.689 301.588 129.644 301.539C129.599 301.49 129.536 301.461 129.47 301.459Z" fill="#2C2C2C"/>
<path d="M128.258 287.211C126.716 285.067 123.833 286.019 122.182 287.402C119.398 289.821 117.299 292.931 116.095 296.419C116.091 296.435 116.09 296.452 116.092 296.468C116.095 296.485 116.102 296.5 116.111 296.514C116.121 296.527 116.133 296.538 116.148 296.546C116.162 296.554 116.179 296.559 116.195 296.56C116.191 296.636 116.205 296.713 116.236 296.783C116.267 296.853 116.314 296.915 116.374 296.963C116.434 297.011 116.504 297.044 116.579 297.059C116.654 297.074 116.732 297.071 116.806 297.051C120.059 295.858 123.683 294.987 126.476 292.822C128.138 291.59 129.71 289.225 128.258 287.211ZM121.371 294.225C119.779 294.856 118.177 295.397 116.616 296.089C117.807 294.335 118.918 292.542 120.28 290.909C120.927 290.112 121.626 289.359 122.372 288.654C123.553 287.592 128.188 285.338 127.487 289.656C127.137 292.031 123.263 293.474 121.371 294.215V294.225Z" fill="#2C2C2C"/>
<path d="M106.115 295.347C109.358 296.74 113.122 296.68 116.536 297.03C116.613 297.031 116.69 297.013 116.759 296.978C116.829 296.943 116.889 296.893 116.935 296.83C116.981 296.767 117.011 296.695 117.024 296.618C117.036 296.542 117.03 296.463 117.006 296.389C117.022 296.384 117.036 296.375 117.048 296.364C117.06 296.353 117.069 296.339 117.075 296.323C117.08 296.308 117.083 296.292 117.081 296.275C117.08 296.259 117.075 296.243 117.066 296.229C115.027 293.162 112.221 290.682 108.928 289.035C106.986 288.113 103.922 287.913 103.001 290.368C102.08 292.822 104.203 294.536 106.115 295.347ZM104.353 292.532C102.591 288.524 107.646 289.526 109.048 290.287C109.948 290.779 110.815 291.331 111.641 291.941C113.323 293.228 114.941 294.599 116.486 296.049C114.794 295.768 113.102 295.648 111.41 295.437C109.378 295.187 105.304 294.746 104.333 292.532H104.353Z" fill="#2C2C2C"/>
<path d="M125.135 288.213H78.2949C78.2949 288.213 88.4759 142.852 86.8341 134.706C84.1412 121.37 85.9332 106.05 92.24 98.636H133.915C133.915 98.636 134.746 110.339 130.441 117.332C130.441 117.332 126.527 119.807 124.635 120.899L125.135 288.213Z" fill="#A6A6A6"/>
<path d="M120.77 280.629C114.283 280.468 116.155 280.418 109.658 280.328C106.484 280.278 85.632 279.987 82.6287 280.458C82.5587 280.458 82.5587 280.579 82.6287 280.589C85.632 281.1 106.474 281.03 109.658 281.01C116.145 281.01 114.283 280.92 120.77 280.819C120.79 280.813 120.807 280.8 120.82 280.783C120.832 280.766 120.839 280.745 120.839 280.724C120.839 280.703 120.832 280.682 120.82 280.665C120.807 280.648 120.79 280.635 120.77 280.629Z" fill="#2C2C2C"/>
<path d="M133.043 115.498C128.946 117.475 125.024 119.798 121.321 122.442C121.29 122.46 121.268 122.49 121.26 122.525C121.251 122.56 121.257 122.597 121.276 122.627C121.294 122.658 121.324 122.68 121.359 122.688C121.394 122.697 121.43 122.691 121.461 122.672C125.465 120.478 129.469 118.354 133.314 115.949C133.373 115.913 133.416 115.855 133.433 115.788C133.45 115.72 133.439 115.648 133.404 115.589C133.368 115.529 133.31 115.486 133.242 115.469C133.174 115.452 133.103 115.463 133.043 115.498Z" fill="#2C2C2C"/>
<path d="M127.727 114.897C127.49 115.707 127.303 116.53 127.167 117.362C126.997 118.016 126.952 118.696 127.037 119.366C127.037 119.496 127.247 119.486 127.307 119.366C127.621 118.735 127.837 118.059 127.948 117.362C128.148 116.591 128.368 115.829 128.538 115.058C128.658 114.567 127.887 114.396 127.727 114.897Z" fill="#2C2C2C"/>
<path d="M127.357 110.88C127.467 110.178 127.577 109.487 127.707 108.796C127.838 108.104 128.018 107.353 128.088 106.632C128.088 106.511 128.288 106.551 128.268 106.632C128.158 107.333 128.148 108.054 128.088 108.756C128.028 109.457 127.968 110.168 127.898 110.87C127.757 112.192 127.549 113.506 127.277 114.807C127.968 114.69 128.625 114.419 129.199 114.016C129.731 113.467 130.081 112.767 130.2 112.012C130.4 111.21 130.58 110.409 130.791 109.607C131.074 108.739 131.279 107.847 131.401 106.942C131.401 106.822 131.602 106.862 131.582 106.942C131.419 108.847 131.063 110.73 130.52 112.563C130.403 113.29 130.031 113.951 129.469 114.427C128.746 114.813 127.953 115.048 127.137 115.118C127.047 115.118 126.907 115.118 126.917 115.008C126.995 113.625 127.142 112.248 127.357 110.88Z" fill="#2C2C2C"/>
<path d="M93.6005 134.175C93.3002 131.109 92.7996 128.063 92.4693 124.997C91.8433 118.859 92.2152 112.66 93.5705 106.641C93.5705 106.531 93.4203 106.481 93.4003 106.641C92.215 111.927 91.6638 117.336 91.7585 122.753C92.0288 128.163 92.9898 133.493 93.0699 138.914C93.15 144.334 92.7296 149.885 92.3792 155.356C92.0288 160.826 91.6684 166.377 91.318 171.878C89.8965 194.011 88.5851 216.144 87.2336 238.286C86.8599 244.458 86.4995 250.637 86.1524 256.822C85.7921 263.105 85.3516 269.397 85.1514 275.699C85.1514 276.24 85.9322 276.2 85.9823 275.699C86.9233 264.587 87.4639 253.436 88.1746 242.324C88.8854 231.213 89.5161 220.282 90.1768 209.26C90.8375 198.239 91.5082 187.217 92.179 176.196C92.4993 170.692 92.833 165.188 93.18 159.684C93.5004 154.204 93.9008 148.713 93.9809 143.222C94.025 140.202 93.8979 137.181 93.6005 134.175Z" fill="#2C2C2C"/>
<path d="M108.356 106.231C108.348 106.216 108.335 106.204 108.32 106.196C108.305 106.188 108.288 106.183 108.271 106.183C108.254 106.183 108.238 106.188 108.223 106.196C108.208 106.204 108.195 106.216 108.186 106.231C107.938 106.957 107.806 107.718 107.796 108.485C107.666 109.306 107.475 110.117 107.225 110.91C106.766 112.504 105.904 113.953 104.723 115.118C102.1 117.573 98.5859 118.485 95.2023 119.306C95.1799 119.313 95.1603 119.327 95.1464 119.346C95.1325 119.365 95.125 119.388 95.125 119.411C95.125 119.435 95.1325 119.458 95.1464 119.477C95.1603 119.496 95.1799 119.509 95.2023 119.517C97.2128 119.607 99.2212 119.294 101.109 118.595C102.792 118.08 104.346 117.208 105.664 116.04C106.922 114.841 107.782 113.285 108.126 111.581C108.305 110.69 108.399 109.784 108.407 108.876C108.407 108.445 108.407 108.014 108.407 107.573C108.478 107.127 108.461 106.671 108.356 106.231Z" fill="#2C2C2C"/>
<path d="M127.978 50.0019C128.839 56.8151 142.174 82.1442 156.369 93.3659C161.574 97.4839 189.174 99.9186 196.082 99.3776C204.16 98.7564 205.372 79.509 200.847 78.0061C195.191 76.1325 169.023 73.818 163.887 71.9945C157.64 69.7301 146.268 55.1919 135.456 46.1945C129.9 41.5355 127.317 44.7617 127.978 50.0019Z" fill="#E2AC93"/>
<path d="M196.082 99.3874C198.635 99.3173 210.317 97.9747 213.491 96.8725C216.664 95.7704 225.504 91.943 224.943 89.4281C224.383 86.9132 221.66 87.825 221.66 87.825C221.66 87.825 225.154 85.6107 224.323 83.1359C223.492 80.6611 219.317 82.2241 219.317 82.2241C219.317 82.2241 222.741 79.6892 221.73 77.2746C220.719 74.8599 216.825 77.1343 216.825 77.1343C216.825 77.1343 220.068 74.9601 218.406 73.3169C216.404 71.313 210.878 76.0321 207.294 76.984C206.473 77.2044 190.456 80.2002 190.456 80.2002L196.082 99.3874Z" fill="#E2AC93"/>
<path d="M217.234 76.9439C213.16 80.3706 210.787 81.1721 205.602 81.8835C205.584 81.8897 205.569 81.9012 205.558 81.9164C205.547 81.9317 205.541 81.95 205.541 81.9687C205.541 81.9874 205.547 82.0057 205.558 82.0209C205.569 82.0362 205.584 82.0477 205.602 82.0538C210.737 81.8134 213.86 81.2423 217.404 77.1343C217.554 76.9339 217.394 76.7836 217.234 76.9439Z" fill="#2C2C2C"/>
<path d="M219.667 81.9434C215.133 85.1897 212.57 86.0213 207.224 87.1936C207.154 87.1936 207.174 87.3439 207.224 87.3339C212.59 86.6425 215.693 86.0013 219.808 82.214C219.978 82.0236 219.878 81.7931 219.667 81.9434Z" fill="#2C2C2C"/>
<path d="M221.379 87.875C216.764 90.6504 213.991 91.7425 208.625 92.1934C208.599 92.1934 208.573 92.204 208.555 92.2228C208.536 92.2415 208.525 92.267 208.525 92.2936C208.525 92.3202 208.536 92.3457 208.555 92.3644C208.573 92.3832 208.599 92.3938 208.625 92.3938C213.304 92.6759 217.906 91.107 221.439 88.0253C221.71 87.8149 221.67 87.7047 221.379 87.875Z" fill="#2C2C2C"/>
<path d="M186.751 78.096C189.447 76.3521 192.268 74.8083 195.19 73.4771C198.013 72.4751 209.926 72.4751 210.056 75.0602C210.236 78.3866 203.359 79.7192 199.905 79.9396C199.905 79.9396 200.336 87.6245 195.601 89.6585C190.865 91.6924 186.751 78.096 186.751 78.096Z" fill="#E2AC93"/>
<path d="M209.816 75.9921C207.814 79.1382 203.239 79.1282 199.905 79.5891C199.855 79.5916 199.806 79.6069 199.763 79.6334C199.72 79.6599 199.684 79.6969 199.659 79.7408C199.634 79.7847 199.621 79.8343 199.62 79.8848C199.619 79.9354 199.631 79.9853 199.655 80.0299C199.655 83.2662 198.654 87.815 195.801 89.7287C195.71 89.7889 195.801 89.9191 195.871 89.869C199.184 88.2258 200.526 83.8574 200.335 80.2804C203.759 79.8696 208.344 79.6793 209.846 76.0021C209.856 75.9821 209.826 75.9721 209.816 75.9921Z" fill="#2C2C2C"/>
<path d="M172.236 99.0166C172.236 99.0166 158.1 95.1491 156.379 93.7965C154.5 92.3185 152.708 90.7328 151.013 89.0473C138.149 76.3928 130.381 59.1393 128.278 53.1277C126.056 46.7253 128.098 40.5934 134.054 44.7214C134.534 45.0609 134.995 45.4255 135.436 45.8135C142.444 51.9253 161.184 70.5114 163.466 71.4632C165.749 72.4151 176.751 73.8579 176.751 73.8579L172.236 99.0166Z" fill="#455A64"/>
<path d="M151.013 89.0473C138.149 76.3928 130.381 59.1393 128.278 53.1277C126.056 46.7253 128.098 40.5934 134.054 44.7214L151.013 89.0473Z" fill="#2C2C2C"/>
<path d="M172.186 73.4171C171.528 75.3508 170.983 77.3213 170.554 79.3185C170.064 81.3224 169.553 83.3263 169.143 85.3302C168.251 89.2602 167.583 93.2376 167.141 97.2432C167.141 97.2672 167.15 97.2901 167.167 97.307C167.184 97.3239 167.207 97.3334 167.231 97.3334C167.255 97.3334 167.278 97.3239 167.294 97.307C167.311 97.2901 167.321 97.2672 167.321 97.2432C168.402 93.3156 169.203 89.2978 170.024 85.3101C170.434 83.3062 170.805 81.3625 171.215 79.3987C171.625 77.4349 172.116 75.3909 172.336 73.4471C172.34 73.4272 172.336 73.4065 172.325 73.3896C172.314 73.3727 172.296 73.3609 172.276 73.357C172.256 73.353 172.236 73.3571 172.219 73.3683C172.202 73.3796 172.19 73.3971 172.186 73.4171Z" fill="#2C2C2C"/>
<path d="M141.694 63.8785C142.024 65.3614 142.284 66.8843 142.485 68.4474C142.48 68.3873 142.48 68.327 142.485 68.267C142.565 67.4154 142.625 66.5437 142.775 65.702C142.775 65.702 142.855 65.652 142.855 65.702C142.907 66.5683 142.873 67.4374 142.755 68.2971C142.705 68.7079 142.655 69.1187 142.595 69.5194C142.665 70.2108 142.725 70.9021 142.765 71.5834C142.845 72.886 143.095 78.4467 143.065 79.3986C143.065 79.599 142.835 79.619 142.785 79.3986C142.595 78.3967 142.094 72.6956 141.954 71.3831C141.692 68.8802 141.565 66.365 141.574 63.8485C141.594 63.8184 141.674 63.8284 141.694 63.8785Z" fill="#2C2C2C"/>
<path d="M143.285 105.499C141.282 107.303 138.84 109.938 124.785 110.92C123.904 110.92 123.003 110.99 122.102 110.92C108.567 110.539 89.5765 99.8983 88.4453 99.0567C88.4453 99.0567 103.031 59.5602 122.322 44.4008C125.075 42.2266 130.981 43.2987 134.675 45.533C135.997 46.3345 140.361 53.6387 141.242 60.2916C142.123 66.9445 145.277 103.696 143.285 105.499Z" fill="#455A64"/>
<path d="M132.323 55.4321C128.919 55.7127 124.044 49.8212 122.442 45.4127C122.332 45.1121 123.213 42.2365 124.114 38.6897C124.654 36.5355 125.205 34.1308 125.545 31.8965C125.615 31.4356 127.047 32.5177 127.047 32.5177L129.83 33.6599L139.04 37.4473C137.809 40.1192 136.912 42.9324 136.367 45.8235C136.337 46.1367 136.337 46.4521 136.367 46.7653C136.371 46.8153 136.371 46.8656 136.367 46.9156C136.337 48.6891 135.606 55.1315 132.323 55.4321Z" fill="#E2AC93"/>
<path d="M136.326 46.7553C136.331 46.8053 136.331 46.8556 136.326 46.9056C135.84 46.8994 135.354 46.8524 134.875 46.7653C125.465 45.1121 126.135 32.9185 126.135 32.9185L129.839 33.6499L139.049 37.4372C137.819 40.1091 136.921 42.9223 136.376 45.8134C136.33 46.1251 136.313 46.4405 136.326 46.7553Z" fill="#2C2C2C"/>
<path d="M124.595 17.2183C122.803 22.1679 124.715 36.8163 128.118 40.263C133.054 45.2727 141.513 46.1043 145.808 40.0726C149.982 34.2413 147.149 15.1844 143.315 12.0182C137.659 7.37925 127.238 9.91416 124.595 17.2183Z" fill="#E2AC93"/>
<path d="M137.93 27.3577C137.93 27.3577 137.859 27.4178 137.869 27.4579C138.02 28.4598 138.04 29.592 137.179 30.0328C137.179 30.0328 137.179 30.093 137.179 30.0829C138.27 29.7924 138.24 28.2594 137.93 27.3577Z" fill="#2C2C2C"/>
<path d="M136.918 26.4362C135.316 26.5163 135.597 29.7125 137.078 29.6424C138.56 29.5723 138.259 26.3661 136.918 26.4362Z" fill="#2C2C2C"/>
<path d="M143.995 26.6963C143.995 26.6963 144.075 26.6963 144.075 26.7765C144.135 27.7788 144.366 28.9014 145.287 29.162C144.155 29.152 143.885 27.6485 143.995 26.6963Z" fill="#2C2C2C"/>
<path d="M144.796 25.5841C146.378 25.3336 146.799 28.5198 145.307 28.7602C143.815 29.0007 143.465 25.8045 144.796 25.5841Z" fill="#2C2C2C"/>
<path d="M135.677 24.0724C136.097 23.922 136.468 23.7115 136.878 23.5211C137.325 23.3908 137.715 23.1158 137.989 22.7393C138.056 22.6044 138.075 22.4511 138.044 22.3039C138.013 22.1567 137.934 22.0241 137.819 21.9274C137.559 21.7769 137.264 21.6978 136.963 21.6978C136.663 21.6978 136.367 21.7769 136.107 21.9274C135.533 22.1445 135.061 22.5704 134.786 23.1202C134.736 23.2473 134.723 23.3861 134.748 23.5204C134.774 23.6547 134.837 23.779 134.93 23.8787C135.023 23.9785 135.143 24.0497 135.275 24.084C135.408 24.1182 135.547 24.1142 135.677 24.0724Z" fill="#2C2C2C"/>
<path d="M145.798 24.503C145.36 24.4548 144.925 24.3811 144.496 24.2825C144.028 24.2675 143.578 24.0984 143.215 23.8014C143.125 23.6831 143.077 23.5388 143.077 23.3904C143.077 23.2421 143.125 23.0978 143.215 22.9795C143.421 22.7604 143.682 22.6017 143.972 22.5204C144.261 22.4392 144.567 22.4385 144.857 22.5184C145.469 22.5819 146.037 22.8713 146.448 23.3303C146.535 23.4435 146.586 23.5794 146.597 23.7215C146.607 23.8635 146.576 24.0055 146.507 24.1301C146.437 24.2546 146.334 24.3562 146.208 24.4224C146.082 24.4887 145.939 24.5167 145.798 24.503Z" fill="#2C2C2C"/>
<path d="M142.604 32.0869C142.704 32.8079 142.768 33.5336 142.794 34.2611C141.44 34.2666 140.093 34.4553 138.79 34.8222C138.489 34.9224 138.489 34.6619 138.79 34.4615C139.809 33.8541 140.989 33.5711 142.173 33.6499C142.173 33.4595 141.833 31.3855 141.943 31.3755C142.481 31.4303 143.009 31.5549 143.515 31.7462C143.204 28.6602 142.404 25.6444 142.133 22.5684C142.133 22.4582 142.283 22.4181 142.314 22.5183C143.281 25.7217 143.921 29.0148 144.226 32.3474C144.316 32.7381 142.884 32.1971 142.604 32.0869Z" fill="#2C2C2C"/>
<path d="M125.655 29.432C128.178 29.2517 127.858 23.0797 127.858 23.0797C127.858 23.0797 131.702 22.3383 133.514 17.0681C133.514 17.0681 138.519 20.0739 142.654 19.3124C149.141 18.05 148.86 9.58357 146.408 7.89029C142.924 5.48563 136.817 9.12268 136.817 9.12268C136.817 9.12268 127.487 6.64787 124.804 12.9801C123.6 13.079 122.478 13.6313 121.664 14.5256C120.85 15.42 120.405 16.5899 120.42 17.7995C120.179 22.3583 123.783 29.5623 125.655 29.432Z" fill="#2C2C2C"/>
<path d="M126.966 23.8211C128.833 23.4754 130.531 22.5164 131.792 21.0958C132.469 20.3279 132.951 19.4077 133.197 18.4134C133.442 17.4191 133.445 16.3801 133.203 15.3848C133.209 15.3671 133.221 15.3517 133.236 15.3409C133.251 15.3301 133.27 15.3242 133.288 15.3242C133.307 15.3242 133.325 15.3301 133.34 15.3409C133.356 15.3517 133.367 15.3671 133.373 15.3848C133.673 16.4269 133.739 17.5225 133.565 18.5929C133.392 19.6634 132.985 20.6824 132.372 21.5768C131.76 22.4245 130.938 23.0978 129.986 23.53C129.035 23.9623 127.987 24.1386 126.946 24.0415C126.886 23.9914 126.856 23.8411 126.966 23.8211Z" fill="#2C2C2C"/>
<path d="M136.568 9.40296C137.372 8.07442 138.631 7.08429 140.112 6.61756C141.911 6.10635 143.836 6.27759 145.517 7.09849C146.186 7.44935 146.751 7.97011 147.155 8.6085C147.559 9.24688 147.788 9.98045 147.82 10.7355C147.84 12.4875 147.257 14.1929 146.168 15.5649C146.168 15.5649 146.078 15.5649 146.108 15.5649C146.977 14.2696 147.421 12.7359 147.379 11.1764C147.352 10.4344 147.116 9.7152 146.698 9.10181C146.28 8.48841 145.697 8.0058 145.017 7.70967C142.334 6.55744 138.43 6.79791 136.708 9.53322C136.658 9.59333 136.508 9.49313 136.568 9.40296Z" fill="#2C2C2C"/>
<path d="M127.137 29.2013C127.137 29.2013 124.004 24.402 121.832 25.5142C119.659 26.6263 121.932 33.5297 124.404 34.5316C124.712 34.6821 125.047 34.7688 125.389 34.7865C125.731 34.8041 126.073 34.7525 126.395 34.6346C126.717 34.5167 127.011 34.335 127.261 34.1003C127.51 33.8657 127.71 33.583 127.848 33.2692L127.137 29.2013Z" fill="#E2AC93"/>
<path d="M122.481 27.468C122.481 27.468 122.481 27.5181 122.481 27.5382C123.273 27.9641 123.966 28.5516 124.516 29.2627C125.066 29.9738 125.461 30.7927 125.675 31.6662C125.579 31.4862 125.445 31.3294 125.282 31.2066C125.12 31.0837 124.932 30.9979 124.733 30.955C124.534 30.912 124.328 30.9131 124.129 30.9581C123.931 31.003 123.744 31.0908 123.583 31.2153C123.583 31.2153 123.583 31.3155 123.583 31.3055C123.894 31.2171 124.224 31.2274 124.529 31.3351C124.834 31.4428 125.098 31.6425 125.284 31.9066C125.595 32.3514 125.857 32.8284 126.065 33.3294C126.145 33.4897 126.426 33.4095 126.376 33.2292C126.516 30.9548 124.874 27.7686 122.481 27.468Z" fill="#2C2C2C"/>
<path d="M32.7053 338H0V331.988H32.7053C58.6133 331.988 66.0013 309.795 67.633 291.179C68.9144 276.601 69.6952 258.846 70.5261 240.08C73.6395 169.764 76.863 97.0527 105.134 97.0527H131.041V103.064H105.113C82.5892 103.064 79.0854 182.408 76.5126 240.33C75.6717 259.197 74.8808 277.012 73.5995 291.73C70.9967 321.558 56.471 338 32.7053 338Z" fill="#FFC42D"/>
<path opacity="0.2" d="M131.042 97.0227V103.034H110.38L109.099 97.0227H131.042Z" fill="#2C2C2C"/>
<path d="M220.918 138.864H231.95V61.7343H220.918V138.864Z" fill="#FFC42D"/>
<path d="M220.918 65.3916H178.993V134.405H220.918V65.3916Z" fill="#FFC42D"/>
<path opacity="0.2" d="M220.919 65.3916V134.405H210.508L205.833 65.3916H220.919Z" fill="#2C2C2C"/>
<path d="M115.484 106.171H146.588V93.8768H115.484V106.171Z" fill="#FFC42D"/>
<path d="M146.589 93.8867H115.485V106.181H146.589V93.8867Z" fill="#FFC42D"/>
<path opacity="0.2" d="M135.666 106.171L136.687 93.8867H146.588V106.171H135.666Z" fill="#2C2C2C"/>
<path d="M178.993 130.317H152.745C151.112 130.317 149.546 129.668 148.391 128.512C147.237 127.357 146.588 125.789 146.588 124.155V76.4227C146.588 74.7884 147.237 73.2211 148.391 72.0655C149.546 70.9099 151.112 70.2608 152.745 70.2608H178.993V130.317Z" fill="#FFC42D"/>
<path opacity="0.2" d="M165.198 130.317L169.873 70.271H178.993V130.317H165.198Z" fill="#2C2C2C"/>
<g opacity="0.2">
<path opacity="0.2" d="M167.611 118.174H169.684V82.4043H167.611V118.174Z" fill="#2C2C2C"/>
<path opacity="0.2" d="M161.754 118.174H163.826V82.4043H161.754V118.174Z" fill="#2C2C2C"/>
<path opacity="0.2" d="M155.889 118.174H157.961V82.4043H155.889V118.174Z" fill="#2C2C2C"/>
</g>
<path d="M113.573 58.2877C112.572 72.7557 111.431 102.223 117.818 110.87C126.197 122.212 149.852 129.095 156.86 131.159C159.863 132.051 167.061 112.122 165.279 109.256C163.497 106.391 139.081 100.239 137.159 98.5557C135.237 96.8724 129.15 73.3869 126.257 61.4237C122.513 46.3345 113.984 52.5766 113.573 58.2877Z" fill="#E2AC93"/>
<path d="M183.318 116.911C187.172 117.833 193.018 115.849 193.208 118.805C193.378 121.43 189.204 122.402 189.204 122.402C189.204 122.402 194.269 122.833 193.649 125.708C193.028 128.584 188.223 128.714 188.223 128.714C188.223 128.714 192.868 129.345 192.037 132.171C191.206 134.996 186.751 135.387 186.751 135.387C186.751 135.387 187.923 136.259 186.441 137.992C184.329 140.477 177.281 140.186 173.647 139.164C170.013 138.142 157.43 131.69 155.518 130.658L161.894 107.213C161.894 107.213 169.212 106.05 172.996 105.91C176.781 105.77 189.364 108.776 188.834 111.922C188.303 115.068 179.443 112.823 177.151 112.743C174.858 112.663 174.458 113.174 175.459 114.016C176.11 114.607 181.606 116.501 183.318 116.911Z" fill="#E2AC93"/>
<path d="M188.974 122.352C183.058 123.354 180.295 122.692 174.869 120.348C174.759 120.298 174.669 120.448 174.779 120.508C179.884 123.264 183.238 124.516 189.034 122.622C189.324 122.542 189.264 122.312 188.974 122.352Z" fill="#2C2C2C"/>
<path d="M188.454 128.614C182.217 129.065 179.224 128.434 173.358 126.41C173.278 126.41 173.217 126.52 173.298 126.56C178.894 129.015 182.257 130.207 188.434 128.935C188.714 128.884 188.744 128.594 188.454 128.614Z" fill="#2C2C2C"/>
<path d="M186.672 135.347C180.595 135.347 177.282 134.786 171.836 132.101C171.811 132.088 171.782 132.086 171.755 132.094C171.728 132.102 171.706 132.12 171.692 132.144C171.678 132.168 171.673 132.197 171.68 132.224C171.686 132.252 171.702 132.275 171.726 132.291C177.011 135.577 181.146 136.299 186.652 135.537C187.022 135.477 187.052 135.347 186.672 135.347Z" fill="#2C2C2C"/>
<path d="M138.39 126.46C138.39 126.46 119.299 116.861 116.366 109.507C112.762 100.329 111.29 73.5672 112.692 59.8406C114.094 46.114 123.644 47.8173 126.707 59.9508C129.71 71.7938 136.488 95.4496 137.188 96.5618C138.079 97.9946 148.971 100.69 148.971 100.69" fill="#455A64"/>
<path d="M136.477 93.496C136.147 92.3638 135.566 89.8089 135.236 88.7067C134.565 86.5024 133.894 84.2882 133.234 82.0839C132.573 79.8796 131.862 77.6653 131.131 75.4711C131.001 75.1004 130.881 74.7196 130.761 74.3489C130.821 74.1084 130.551 71.2028 130.571 70.4914C130.571 70.3812 130.39 70.3712 130.4 70.4914C130.427 71.2036 130.404 71.9167 130.33 72.6256C130.33 72.7558 130.33 72.8961 130.33 73.0263C129.87 71.5835 129.409 70.1508 128.939 68.748C128.939 68.6478 128.739 68.6879 128.769 68.748C129.67 71.7539 130.11 73.6475 130.771 76.0823C131.432 78.517 132.112 80.7814 132.773 83.0959C133.434 85.4103 134.205 87.7649 134.935 90.1094C135.346 91.4989 135.828 92.8666 136.377 94.2074C136.797 95.1091 136.817 94.6883 136.477 93.496Z" fill="#2C2C2C"/>
<path d="M114.944 101.582C114.554 99.1069 114.164 96.572 113.863 94.1273C113.253 89.1175 112.862 84.188 112.642 79.1783C112.512 76.3127 112.302 73.4672 112.141 70.6117C112.141 70.5824 112.13 70.5544 112.109 70.5338C112.089 70.5131 112.061 70.5015 112.031 70.5015C112.002 70.5015 111.974 70.5131 111.953 70.5338C111.933 70.5544 111.921 70.5824 111.921 70.6117C111.921 73.1566 111.831 75.6915 111.921 78.2365C111.921 78.6072 111.921 78.9779 111.921 79.3486L111.801 78.8276C111.431 77.3748 110.91 75.952 110.59 74.4792C110.581 74.4622 110.566 74.4488 110.549 74.4416C110.531 74.4344 110.511 74.4338 110.493 74.4398C110.475 74.4459 110.46 74.4582 110.45 74.4746C110.44 74.491 110.436 74.5104 110.44 74.5293C110.8 75.9921 110.99 77.5351 111.331 78.9679C111.511 79.6993 111.691 80.4307 111.891 81.1621L111.991 81.4727C112.051 82.9356 112.121 84.3984 112.222 85.8612C112.493 90.8816 113.071 95.8806 113.953 100.83C114.558 104.067 115.432 107.248 116.566 110.339C116.572 110.354 116.582 110.367 116.596 110.377C116.609 110.386 116.625 110.391 116.641 110.391C116.658 110.391 116.674 110.386 116.687 110.377C116.7 110.367 116.711 110.354 116.716 110.339C116.126 107.864 115.345 104.056 114.944 101.582Z" fill="#2C2C2C"/>
<path d="M145.427 100.68C144.381 102.478 143.445 104.339 142.624 106.25C141.743 108.134 140.852 110.018 140.021 111.921C138.336 115.67 136.862 119.51 135.606 123.424C135.604 123.446 135.609 123.468 135.62 123.487C135.631 123.505 135.649 123.52 135.669 123.528C135.69 123.536 135.712 123.537 135.734 123.531C135.755 123.525 135.773 123.512 135.786 123.494C137.648 119.787 139.24 115.929 140.862 112.112C141.663 110.228 142.433 108.324 143.224 106.441C144.015 104.557 144.916 102.663 145.527 100.72C145.547 100.66 145.457 100.629 145.427 100.68Z" fill="#2C2C2C"/>
</svg>
