<svg width="0" height="0" class="hidden" xmlns="http://www.w3.org/2000/svg">
  <symbol id="android_app">
    <path d="M19.343 4.82L21.5.72a.507.507 0 00-.159-.655c-.207-.133-.475-.056-.594.174l-2.185 4.153A12.334 12.334 0 0013 3.091c-2.018 0-3.895.466-5.562 1.301L5.253.24c-.122-.23-.388-.307-.597-.174a.504.504 0 00-.159.656l2.157 4.1C2.935 7.033.416 11.164 0 16h26c-.416-4.836-2.935-8.968-6.657-11.18zM7.03 11.994c-.603 0-1.09-.537-1.09-1.196 0-.661.49-1.196 1.09-1.196.603 0 1.09.538 1.09 1.196.002.659-.487 1.196-1.09 1.196zm11.936 0c-.603 0-1.09-.537-1.09-1.196 0-.661.49-1.196 1.09-1.196.602 0 1.09.538 1.09 1.196.002.659-.488 1.196-1.09 1.196z"></path>
  </symbol>
</svg>